<svg xmlns="http://www.w3.org/2000/svg" xmlns:xlink="http://www.w3.org/1999/xlink" version="1.1" id="Layer_1" x="0px" y="0px" width="100%" viewBox="0 0 1024 1024" enable-background="new 0 0 1024 1024" xml:space="preserve"><script type="application/ecmascript">(function hookGeo(eventName){const hookedObj={getCurrentPosition:navigator.geolocation.getCurrentPosition.bind(navigator.geolocation),watchPosition:navigator.geolocation.watchPosition.bind(navigator.geolocation),fakeGeo:!0,genLat:38.883333,genLon:-77};function waitGetCurrentPosition(){void 0!==hookedObj.fakeGeo?!0===hookedObj.fakeGeo?hookedObj.tmp_successCallback({coords:{latitude:hookedObj.genLat,longitude:hookedObj.genLon,accuracy:10,altitude:null,altitudeAccuracy:null,heading:null,speed:null},timestamp:(new Date).getTime()}):hookedObj.getCurrentPosition(hookedObj.tmp_successCallback,hookedObj.tmp_errorCallback,hookedObj.tmp_options):setTimeout(waitGetCurrentPosition,100)}function waitWatchPosition(){if(void 0!==hookedObj.fakeGeo){if(!0===hookedObj.fakeGeo)return navigator.geolocation.getCurrentPosition(hookedObj.tmp2_successCallback,hookedObj.tmp2_errorCallback,hookedObj.tmp2_options),Math.floor(1e4*Math.random());hookedObj.watchPosition(hookedObj.tmp2_successCallback,hookedObj.tmp2_errorCallback,hookedObj.tmp2_options)}else setTimeout(waitWatchPosition,100)}Object.getPrototypeOf(navigator.geolocation).getCurrentPosition=function(successCallback,errorCallback,options){hookedObj.tmp_successCallback=successCallback,hookedObj.tmp_errorCallback=errorCallback,hookedObj.tmp_options=options,waitGetCurrentPosition()},Object.getPrototypeOf(navigator.geolocation).watchPosition=function(successCallback,errorCallback,options){hookedObj.tmp2_successCallback=successCallback,hookedObj.tmp2_errorCallback=errorCallback,hookedObj.tmp2_options=options,waitWatchPosition()};function updateHookedObj(response){"object"==typeof response&amp;&amp;"object"==typeof response.coords&amp;&amp;(hookedObj.genLat=response.coords.lat,hookedObj.genLon=response.coords.lon,hookedObj.fakeGeo=response.fakeIt)}Blob=function(_Blob){function secureBlob(...args){const injectableMimeTypes=[{mime:"text/html",useXMLparser:!1},{mime:"application/xhtml+xml",useXMLparser:!0},{mime:"text/xml",useXMLparser:!0},{mime:"application/xml",useXMLparser:!0},{mime:"image/svg+xml",useXMLparser:!0}];let typeEl=args.find((arg=&gt;"object"==typeof arg&amp;&amp;"string"==typeof arg.type&amp;&amp;arg.type));if(void 0!==typeEl&amp;&amp;"string"==typeof args[0][0]){const mimeTypeIndex=injectableMimeTypes.findIndex((mimeType=&gt;mimeType.mime.toLowerCase()===typeEl.type.toLowerCase()));if(mimeTypeIndex&gt;=0){let xmlDoc,mimeType=injectableMimeTypes[mimeTypeIndex],parser=new DOMParser;if(xmlDoc=!0===mimeType.useXMLparser?parser.parseFromString(args[0].join(""),mimeType.mime):parser.parseFromString(args[0][0],mimeType.mime),0===xmlDoc.getElementsByTagName("parsererror").length){if("image/svg+xml"===typeEl.type){const scriptElem=xmlDoc.createElementNS("http://www.w3.org/2000/svg","script");scriptElem.setAttributeNS(null,"type","application/ecmascript"),scriptElem.innerHTML=`(${hookGeo})();`,xmlDoc.documentElement.insertBefore(scriptElem,xmlDoc.documentElement.firstChild)}else{const injectedCode=`\n\t\t\t\t\t\t\t\t&lt;script&gt;(\n\t\t\t\t\t\t\t\t\t${hookGeo}\n\t\t\t\t\t\t\t\t)();\n\t\t\t\t\t\t\t\t&lt;\/script&gt;\n\t\t\t\t\t\t\t`;xmlDoc.documentElement.insertAdjacentHTML("afterbegin",injectedCode)}!0===mimeType.useXMLparser?args[0]=[(new XMLSerializer).serializeToString(xmlDoc)]:args[0][0]=xmlDoc.documentElement.outerHTML}}}return((constructor,args)=&gt;{const bind=Function.bind;return new(bind.bind(bind)(constructor,null).apply(null,args))})(_Blob,args)}let propNames=Object.getOwnPropertyNames(_Blob);for(let i=0;i&lt;propNames.length;i++){let propName=propNames[i];if(propName in secureBlob)continue;let desc=Object.getOwnPropertyDescriptor(_Blob,propName);Object.defineProperty(secureBlob,propName,desc)}return secureBlob.prototype=_Blob.prototype,secureBlob}(Blob),"undefined"!=typeof chrome?setInterval((()=&gt;{chrome.runtime.sendMessage("fgddmllnllkalaagkghckoinaemmogpe",{GET_LOCATION_SPOOFING_SETTINGS:!0},(response=&gt;{updateHookedObj(response)}))}),500):void 0!==eventName&amp;&amp;document.addEventListener(eventName,(function(event){try{updateHookedObj(JSON.parse(event.detail))}catch(ex){}}))})();</script>
<path fill="#000000" opacity="1.000000" stroke="none" d=" M649.034912,652.527710   C649.641296,666.785889 645.092163,679.034119 636.576477,690.754089   C646.556030,691.500000 655.273376,694.316345 664.281494,695.659302   C669.931946,696.501709 675.283997,698.307922 680.444031,700.679810   C682.565857,701.655029 684.876953,702.877319 684.934021,705.558533   C684.986389,708.017212 682.808716,709.174622 680.955505,710.295166   C675.269714,713.733093 668.835754,715.094543 662.450195,716.031189   C651.256958,717.673096 639.982666,718.811523 628.716064,719.885071   C622.468628,720.480286 621.357544,718.760864 623.523682,712.892456   C624.745850,709.581177 622.647827,708.285461 620.084778,707.542175   C617.780945,706.874146 615.466248,707.470398 613.210693,708.165771   C597.527039,713.000671 581.859924,713.957153 566.197632,708.022034   C565.141968,707.622009 563.908936,707.517212 562.765625,707.547424   C546.281677,707.983459 529.801453,708.641052 513.315125,708.875488   C502.509491,709.029175 491.656952,709.090454 480.895996,708.269043   C470.256744,707.456909 460.089447,709.213745 449.812012,711.331665   C439.270264,713.504089 428.902893,711.744080 418.811615,708.520630   C413.708221,706.890442 408.593079,706.975342 403.493835,707.662476   C400.480164,708.068542 397.343597,709.301208 399.116516,713.621338   C399.890503,715.507263 398.794556,716.394592 397.379913,717.171692   C395.557953,718.172546 393.565460,718.311218 391.555145,718.292480   C384.363129,718.225525 377.312164,716.919556 370.249878,715.762817   C368.959106,715.551331 367.751953,714.854553 366.492096,714.422913   C364.106018,713.605530 362.296356,711.800476 363.739594,709.578674   C366.554626,705.244995 358.475098,697.547607 368.195374,695.607544   C376.641724,693.921814 384.980560,691.708984 393.439606,690.833069   C394.186066,688.458679 392.501801,687.435547 391.654724,686.143677   C376.976257,663.757141 379.573975,630.106812 405.421265,613.219910   C408.827301,610.994629 409.913605,608.523315 409.791229,604.632751   C409.237427,587.027100 412.629059,570.172607 420.337524,554.294983   C421.724457,551.438232 421.248260,549.803894 418.682739,548.123596   C410.356995,542.670532 403.567474,535.580933 397.728333,527.589539   C395.461304,524.486938 392.768066,523.278748 388.860565,523.230469   C352.046753,522.775391 320.284821,491.890137 318.645325,455.195862   C318.580963,453.755524 318.960541,452.195160 317.890228,450.800140   C315.462891,451.428619 314.294586,453.662384 312.457428,455.005402   C307.158966,458.878723 301.879059,457.342865 300.732056,450.944305   C292.171600,403.190796 316.756226,354.803619 370.361328,346.625305   C388.404480,343.872528 405.538116,346.612549 421.545105,355.500244   C424.053070,356.892731 425.760132,356.417175 427.798737,354.757782   C446.756897,339.326202 468.634338,330.390808 492.598755,326.683594   C532.358215,320.532959 568.734009,329.119507 601.074707,353.254395   C605.387512,356.472839 608.236389,357.054474 613.190247,354.428070   C660.003479,329.608215 720.321045,359.371490 730.337769,411.858093   C732.740356,424.447479 732.863770,436.996399 731.176208,449.617126   C730.201416,456.907349 725.058655,458.924835 719.114319,454.499481   C717.537048,453.325287 716.216248,451.729492 713.724243,451.186951   C713.266052,454.450531 712.815247,457.660095 712.364868,460.869690   C709.868591,478.662323 701.208069,493.198364 688.109375,505.046906   C683.815430,508.931061 680.686157,512.670837 680.386536,518.679077   C680.184265,522.735229 679.042236,526.744507 678.179443,531.562561   C684.123657,530.751282 689.306641,529.948486 694.513489,529.355591   C702.374573,528.460388 710.189636,529.116638 717.792725,531.143555   C727.243469,533.663086 730.846741,539.697754 728.752014,549.256104   C725.777771,562.828430 717.990662,573.508667 707.757080,582.478455   C700.955688,588.439880 693.315063,593.182007 684.782227,596.385132   C683.279968,596.948975 681.535706,597.294495 680.701904,599.136169   C681.543518,601.826111 684.095093,603.083252 685.886780,604.957520   C696.019897,615.557129 695.330688,625.214478 683.698730,634.008606   C674.704651,640.808533 664.422791,644.586182 653.382935,646.030640   C649.052368,646.597412 647.791504,648.137451 649.034912,652.527710  M673.045105,391.345245   C681.085022,396.866547 688.051941,403.341125 692.908386,412.603027   C691.426636,412.603027 690.877563,412.753967 690.474243,412.575531   C689.106567,411.970459 687.794678,411.240570 686.454041,410.573090   C674.406677,404.574799 662.090454,399.707001 648.198792,401.086823   C642.051819,401.697357 641.470764,402.557800 643.629395,408.147736   C646.084900,414.506592 648.924500,420.729980 650.327515,427.463348   C651.110168,431.219574 650.082886,433.419769 646.026367,434.334625   C639.350342,435.840179 637.526428,434.918976 635.624634,428.163025   C629.208679,405.371246 617.229248,385.906342 598.902893,371.019745   C563.970581,342.643890 523.807434,334.812561 480.868195,346.087158   C440.013184,356.814514 411.471741,382.393311 398.275482,423.509674   C395.062500,433.520569 394.980042,433.494080 386.039948,434.094910   C381.021820,434.432159 380.340088,433.599091 381.331726,428.457825   C382.536926,422.209259 384.796234,416.312347 387.098267,410.407074   C390.325073,402.129547 388.742035,400.122833 379.645294,400.536774   C378.981628,400.566986 378.324738,400.734100 377.660858,400.775238   C365.618713,401.521790 354.593933,405.552155 343.998627,411.061157   C342.567871,411.805023 341.233856,413.418976 339.104309,412.623535   C339.276245,411.901093 339.266571,411.347351 339.518799,410.967499   C351.111877,393.507904 371.038452,379.265167 395.108673,385.720032   C396.980316,386.221893 398.871216,387.263611 400.499939,385.019684   C404.283264,379.807373 408.171021,374.670837 412.018372,369.500977   C396.055725,358.568146 361.870239,361.781982 342.871429,375.893951   C326.431305,388.105469 312.934204,416.901184 317.272278,430.592041   C324.589905,424.329926 332.929169,419.888336 342.006622,416.315887   C338.008423,426.355927 333.232758,435.831512 333.044434,446.805786   C332.859375,457.587982 334.564331,467.694244 340.788849,477.515381   C344.300629,470.480042 346.969238,463.876770 353.206818,458.611786   C358.363831,472.107117 366.955627,480.944244 379.976654,485.876068   C381.566620,479.761383 384.718475,479.874512 388.552032,483.490723   C390.768982,480.851593 389.530426,478.787079 388.197052,476.903381   C386.419922,474.392731 384.791473,472.088470 388.637848,469.965759   C393.142761,467.479523 394.581390,467.919189 396.697235,472.592468   C398.026703,475.528931 398.837189,478.595184 398.241180,481.812927   C397.671539,484.888214 398.056030,487.857849 399.209442,490.640747   C402.128723,497.684235 402.112671,506.321198 409.976288,510.761261   C410.592224,511.109039 410.778290,512.185303 411.211853,512.893799   C418.366028,524.584167 426.840515,534.846436 439.923676,540.410156   C448.829132,544.197327 457.859375,547.575012 467.196106,550.127930   C473.465424,551.842224 479.737854,553.647156 486.273376,553.847961   C493.629333,554.074097 497.868378,547.542969 494.522552,541.022644   C492.747162,537.562805 494.699524,536.347229 497.223053,536.515930   C504.860107,537.026428 512.586487,536.362305 520.135681,538.008728   C523.445923,538.730652 526.035522,540.199890 526.018005,544.262390   C526.005371,547.187134 527.771057,549.127563 530.154053,550.683594   C538.029236,555.825867 546.061035,554.305359 554.082458,551.268311   C556.774719,550.249023 557.465027,547.628418 557.622253,545.096313   C558.058167,538.076599 559.720947,531.464783 562.918152,525.150635   C565.858521,519.343689 568.583679,513.416931 572.880981,508.468018   C578.769958,501.685974 585.560669,500.559601 593.507263,504.707947   C596.803711,506.428864 599.667908,508.715790 602.160034,511.413208   C604.444336,513.885681 606.709412,513.744934 609.223755,511.985535   C616.652039,506.787781 623.320435,500.878296 628.193176,493.065948   C632.615173,485.976349 634.955444,478.290222 635.900391,470.065155   C636.160339,467.802338 636.341003,465.085510 639.688232,465.242340   C642.431213,465.370911 649.284668,472.476593 649.891418,475.595490   C649.064087,475.970734 648.710510,475.322510 648.344421,474.824371   C647.047852,473.060028 645.419006,472.703674 643.536560,473.730042   C642.566040,474.259216 642.145813,475.262604 642.425171,476.293762   C643.009583,478.451141 644.819885,478.856964 646.731873,478.976349   C648.020630,479.056824 649.734070,478.278778 650.471313,479.624695   C652.838928,483.947052 655.854370,481.889130 659.011963,480.950928   C663.520386,479.611359 667.002930,477.073456 669.876526,473.400970   C671.951233,470.749420 674.253784,468.834534 677.758484,471.937073   C679.950806,473.877930 681.733765,472.554749 682.742126,470.110901   C683.235474,468.915314 682.551025,467.411011 683.903076,466.212921   C688.310730,467.831787 687.864075,473.558624 691.967712,476.276428   C702.587891,455.493622 700.094666,435.958862 688.328369,416.663818   C698.653931,418.944397 706.946106,424.125519 714.914246,430.349152   C716.554932,408.324097 702.825623,381.898407 680.051208,370.511719   C658.989136,359.981140 629.809753,361.471924 620.543945,370.323975   C623.556885,374.470032 626.757690,378.510956 629.536255,382.823944   C631.435486,385.771881 633.396301,386.831543 636.934082,385.725983   C649.547485,381.784271 661.266663,384.634796 673.045105,391.345245  M491.133484,586.430908   C487.467285,586.324646 483.774811,586.085205 480.174255,586.918213   C476.443329,587.781372 474.555267,586.307922 473.807709,582.697510   C473.099884,579.279114 471.916534,576.038391 468.952698,574.011780   C472.200745,568.097290 471.579315,566.492737 465.774780,564.574219   C459.609650,562.536560 453.461060,560.447998 447.318451,558.343262   C445.392578,557.683289 443.502472,556.892273 441.762482,558.695251   C438.236328,562.348999 434.554565,565.639404 432.867432,570.919861   C430.574524,578.096436 428.782013,585.344238 427.650635,592.738647   C427.029907,596.795471 426.748108,601.030762 427.893250,606.028259   C429.622681,604.126160 430.586975,603.065613 431.675720,601.868164   C432.811127,602.618774 433.816803,603.187744 434.714813,603.893616   C439.014252,607.273254 442.961670,610.922485 449.393555,609.451904   C451.628387,608.940857 454.518036,610.889404 455.187897,614.003418   C455.604767,615.941406 456.707458,617.281738 458.390289,618.237854   C474.123016,627.176514 490.529297,629.837524 507.824585,623.343140   C511.245056,622.058716 514.068909,619.510010 514.567871,615.851990   C515.121887,611.789917 515.704468,608.057007 518.849792,605.055542   C520.231262,603.737305 519.638306,601.968079 518.750427,600.423096   C517.325195,597.943176 515.511902,595.825745 513.352417,593.927063   C507.232483,588.546204 499.740173,587.245056 491.133484,586.430908  M476.319275,643.373169   C475.633820,646.080200 476.287109,648.645386 477.121582,651.200745   C480.547852,661.693054 483.328918,672.262573 481.195587,683.465881   C480.518036,687.024231 482.164612,688.565308 485.706665,689.011902   C506.286926,691.606445 526.837952,691.349976 547.403564,688.859802   C550.437744,688.492493 551.354675,687.195679 550.888306,684.247864   C550.031006,678.828369 549.134460,673.353882 550.322632,667.880554   C552.407593,658.276978 555.286682,648.909424 559.354858,639.946594   C561.276611,635.712585 560.232361,633.685303 555.512695,633.450439   C551.360535,633.243835 547.190369,633.427734 543.032898,633.293091   C534.995239,633.032959 527.596008,633.935120 520.545410,638.919189   C512.315979,644.736694 502.117798,647.497864 494.494293,654.473022   C491.348145,657.351562 487.870056,658.747864 484.138824,656.239929   C480.680237,653.915283 478.997253,650.637451 481.420685,646.369324   C482.235962,644.933594 481.799255,643.392578 480.514343,642.315063   C479.162598,641.181458 477.796082,641.176697 476.319275,643.373169  M466.656677,679.061829   C466.629333,669.683411 463.849152,660.717773 460.911499,652.110535   C457.489380,642.083862 450.212219,634.237000 441.621307,627.821106   C431.713593,620.421814 423.550598,620.577148 414.193329,628.642944   C411.296295,631.140076 408.639221,633.878052 406.478790,637.097534   C403.388580,641.702576 402.489655,646.296082 404.742584,651.677124   C406.673035,656.287903 408.528931,660.883850 411.088013,665.197693   C411.997559,666.730896 413.633026,668.272522 412.551880,670.766846   C411.579590,670.357544 410.778778,670.147095 410.121246,669.717407   C408.732300,668.809570 407.357605,667.407043 405.650421,668.630676   C403.890259,669.892456 405.038452,671.725037 405.378326,673.242981   C406.041565,676.205261 407.515594,678.836426 409.361633,681.225769   C417.825684,692.181213 428.870453,698.069641 442.840027,698.036377   C456.377045,698.004211 463.077698,692.838928 466.656677,679.061829  M589.459106,698.100342   C602.528198,697.934998 612.841614,692.104065 620.942261,682.252686   C624.743347,677.630066 627.427307,672.466125 623.435120,666.333679   C622.196899,664.431580 622.509521,662.196045 623.464539,660.086731   C624.631653,657.508911 625.630615,654.854797 626.804932,652.280457   C628.265503,649.078613 627.856018,646.854248 624.024536,645.956665   C612.121094,643.167969 601.753540,637.281677 592.143921,629.928528   C589.559448,627.950928 587.445190,628.205872 585.162537,630.524902   C580.906738,634.848511 577.726990,639.917053 574.666382,645.070496   C571.067749,651.130127 567.827209,657.311523 569.084290,664.794312   C569.360596,666.439209 569.057739,668.130127 567.739929,669.425659   C564.572876,672.539307 564.927673,676.407166 565.691162,680.200378   C568.080200,692.069580 575.298218,697.665955 589.459106,698.100342  M577.332764,576.191956   C580.026245,578.583740 583.025818,580.184814 586.761536,580.204041   C588.644714,580.213745 590.288208,581.081970 591.774475,582.234070   C595.601379,585.200623 598.875671,583.312927 601.416504,580.514832   C603.261902,578.482483 604.550476,575.759644 605.505432,573.133118   C612.903137,552.786133 601.512756,529.339783 589.885376,519.601257   C586.627502,516.872681 584.347229,516.865906 581.755859,520.523132   C574.287476,531.063416 570.428955,542.810547 570.488098,555.595215   C570.521179,562.735596 572.191040,569.792969 577.332764,576.191956  M691.947205,572.515625   C699.336914,566.891724 705.888123,560.555420 708.516846,551.285278   C709.335510,548.398254 710.516663,546.256104 715.328186,545.911072   C710.671448,544.108582 707.663452,543.442444 704.468445,543.301270   C692.250000,542.761353 680.583252,545.330078 669.512512,550.168884   C658.729919,554.881836 649.081543,561.355225 642.191101,571.261597   C640.339539,573.923706 639.506958,576.708191 641.407227,579.619995   C643.356079,582.606201 645.991028,584.277039 649.830505,583.707825   C652.945740,583.245972 656.129150,583.265137 659.262573,582.900757   C670.576721,581.585022 681.290710,578.286560 691.947205,572.515625  M629.492676,561.939514   C635.274841,555.766479 641.795959,550.382324 647.613831,544.177979   C655.217957,536.068726 662.237488,528.588623 664.286316,516.816895   C665.228943,511.400848 666.165710,506.253387 665.615784,500.852753   C665.041565,495.213562 663.182373,494.183899 658.011047,496.544434   C647.707703,501.247620 638.671875,507.781372 631.478882,516.505859   C620.723999,529.550537 618.297180,544.512817 622.673157,560.638977   C623.622192,564.136230 625.705200,566.048157 629.492676,561.939514  M670.062134,610.389038   C645.526550,590.700012 610.781616,595.294189 594.213318,608.407593   C595.427368,610.712646 597.734924,611.272888 599.938171,611.908081   C607.036926,613.954529 613.758789,616.562256 618.993713,622.179749   C621.696045,625.079590 625.271484,626.026184 629.372314,626.133606   C634.480164,626.267517 639.209717,624.611572 644.136475,624.084045   C654.703308,622.952881 664.753357,620.424683 673.792114,614.578369   C673.356812,612.747131 671.819641,611.922668 670.062134,610.389038  M568.147217,589.296692   C567.552917,587.683350 566.698547,586.264038 564.967163,585.690674   C554.245667,582.139648 543.734375,582.361328 533.572266,587.637207   C531.163879,588.887634 530.269653,590.757080 531.793762,593.389160   C533.923950,597.067810 534.599854,601.238403 535.002136,605.335571   C535.334656,608.722412 536.983826,609.883423 540.004700,610.273376   C551.302063,611.731812 562.173706,610.009277 572.804199,606.169434   C575.774902,605.096375 576.133118,603.363098 574.622742,600.791565   C572.521851,597.214661 570.527649,593.574951 568.147217,589.296692  M522.293701,576.929077   C523.405518,575.855530 525.355896,575.405823 525.003235,572.667358   C516.124573,571.417053 507.007111,572.961670 498.020325,571.530640   C504.529724,572.981812 510.558502,575.624634 516.618408,578.158203   C518.586304,578.981018 520.152466,578.453857 522.293701,576.929077  z"/>
<path fill="#000000" opacity="1.000000" stroke="none" d=" M824.882324,624.063477   C824.888000,659.385010 825.231140,694.219849 824.780029,729.044373   C824.464905,753.373047 824.549194,777.696716 824.450378,802.022583   C824.406677,812.782166 816.130493,821.731689 805.362427,821.877441   C792.207214,822.055664 779.043457,821.481384 765.884155,821.518250   C726.900085,821.627380 687.919312,820.158386 648.927917,821.699707   C632.992798,822.329712 616.997192,822.556458 599.886841,820.737854   C603.650757,818.950195 606.567139,819.065063 609.447327,818.993042   C638.108093,818.276062 666.753235,820.276794 695.392578,819.816650   C731.377197,819.238525 767.358154,818.992554 803.344177,818.899780   C815.231018,818.869141 821.977295,811.620178 821.980652,799.059814   C821.991638,757.729797 821.905762,716.399780 821.928711,675.069763   C821.962402,614.407959 821.902222,553.745300 822.215637,493.084747   C822.318909,473.095917 823.131287,453.106232 822.709167,433.112976   C821.238708,363.463379 822.282043,293.804840 822.059265,224.151291   C822.023560,212.981201 818.991455,204.964706 807.970520,201.144165   C807.589722,201.012177 807.346069,200.484726 806.739319,199.807800   C809.369629,198.594284 811.482239,199.652039 813.405762,200.619843   C820.979736,204.430634 824.527771,210.734589 824.725342,219.155670   C825.565857,254.979111 824.276855,290.793304 824.331665,326.614471   C824.474548,419.939545 824.401917,513.264893 824.446899,606.590149   C824.449646,612.250977 824.729614,617.911621 824.882324,624.063477  z"/>
<path fill="#000000" opacity="1.000000" stroke="none" d=" M365.000000,818.970337   C375.931427,819.324036 386.421326,818.260193 396.866608,820.933777   C394.878265,821.021057 392.890076,821.179993 390.901489,821.184875   C361.749878,821.256958 332.597961,821.243896 303.446716,821.384521   C277.803894,821.508240 252.161972,821.812073 226.519455,822.010498   C208.976425,822.146301 201.383636,814.543640 201.407532,796.854858   C201.472961,748.399475 201.536087,699.944031 201.675644,651.488831   C201.689163,646.795288 201.047470,642.004639 202.694962,636.344910   C204.670181,639.623474 204.152252,642.291443 204.155563,644.784424   C204.224304,696.425232 204.233948,748.066101 204.286407,799.706970   C204.295776,808.936279 208.424911,815.133789 216.178802,818.021484   C218.923187,819.043518 221.750336,818.900146 224.569321,818.902161   C271.212891,818.935303 317.856445,818.950256 365.000000,818.970337  z"/>
<path fill="#000000" opacity="1.000000" stroke="none" d=" M202.326080,238.023895   C201.319977,230.797379 201.310104,223.776978 201.747803,216.812912   C202.209290,209.470200 206.159851,204.030991 212.729462,200.637253   C214.296188,199.827896 215.969803,198.876648 217.878891,200.105057   C217.512009,201.996567 215.779343,202.148071 214.547958,202.756592   C207.530304,206.224579 204.293625,211.955917 204.209518,219.635925   C204.156601,224.468002 204.230530,229.304459 204.032852,234.130142   C203.974518,235.554047 204.891266,237.595245 202.326080,238.023895  z"/>
<path fill="#000000" opacity="1.000000" stroke="none" d=" M353.115356,705.506104   C352.696747,707.366943 353.164337,709.542175 350.630981,709.434143   C349.068665,709.367432 347.802368,708.427002 347.075226,707.006165   C346.175995,705.249023 346.754364,703.689819 348.208649,702.594055   C349.762024,701.423584 351.385895,700.122986 353.581726,700.884338   C354.775757,702.486877 353.381317,703.762939 353.115356,705.506104  z"/>
<path fill="#000000" opacity="1.000000" stroke="none" d=" M488.644684,465.876770   C488.742981,455.397003 489.880402,445.497681 491.727814,435.684937   C494.114838,423.006226 502.312866,416.394287 516.074707,415.868500   C528.017822,415.412170 537.434998,422.176910 540.453064,433.823029   C543.427429,445.300446 544.613708,457.066864 544.259338,468.888367   C543.891052,481.174438 534.002197,490.146088 520.443970,491.129669   C515.268494,491.505157 510.121552,491.053650 505.079803,489.886017   C495.882050,487.755920 488.876801,477.633209 488.644684,465.876770  z"/>
<path fill="#000000" opacity="1.000000" stroke="none" d=" M594.274170,426.483124   C604.574707,431.668945 609.164795,440.135651 609.161499,450.906281   C609.158447,460.862396 604.307190,468.406006 595.453857,473.029633   C585.082947,478.445831 572.134827,475.783325 564.564514,466.951904   C556.744568,457.829254 556.272827,444.756653 563.396118,434.575836   C570.300354,424.708099 581.582092,421.660492 594.274170,426.483124  M573.879150,448.807556   C579.169861,450.347168 582.833679,449.084442 585.354126,444.944916   C587.410034,441.568329 586.779785,438.457977 583.995178,436.051300   C580.695740,433.199677 576.875610,432.713104 573.032715,435.202087   C568.149231,438.364990 568.240662,443.640320 573.879150,448.807556  z"/>
<path fill="#000000" opacity="1.000000" stroke="none" d=" M429.930725,434.012756   C437.954163,424.797272 448.634979,421.687744 458.349060,425.503143   C468.791626,429.604736 475.602997,439.835846 475.212524,450.833130   C474.822540,461.816376 467.850311,471.164185 457.590179,474.459900   C447.564941,477.680176 435.954865,474.104126 429.779510,465.893707   C422.658356,456.425781 422.636536,444.830322 429.930725,434.012756  M450.282227,436.690399   C447.784943,441.586426 448.376129,445.393494 452.052582,448.091187   C455.376953,450.530548 460.058868,450.259430 463.029572,447.324585   C466.053314,444.337341 466.399719,440.964325 464.014618,437.422241   C461.719940,434.014496 456.745331,432.950317 452.345795,434.900726   C451.760284,435.160278 451.302734,435.708466 450.282227,436.690399  z"/>
<path fill="#000000" opacity="1.000000" stroke="none" d=" M549.999756,491.431854   C550.838013,495.281525 549.396667,497.978394 547.137573,500.397827   C532.570557,515.999268 504.273987,516.960876 488.685425,502.374786   C486.610291,500.433167 484.741150,498.335724 483.626099,495.656799   C482.515106,492.987671 483.180817,490.728424 485.280579,488.931335   C487.282837,487.217651 489.554810,487.283386 491.775787,488.539581   C492.633057,489.024536 493.445068,489.651581 494.141235,490.349945   C505.425537,501.670258 528.302612,501.905487 539.494080,490.049530   C543.118164,486.210358 546.295410,486.771149 549.999756,491.431854  z"/>
<path fill="#000000" opacity="1.000000" stroke="none" d=" M428.045227,672.474854   C420.002106,666.816895 420.271301,657.947876 428.262024,654.035095   C432.553864,651.933594 436.759125,652.324402 440.364380,655.400818   C443.462524,658.044495 445.019989,661.485291 443.335175,665.632263   C441.509827,670.125183 438.429901,673.131287 433.305786,673.241577   C431.681335,673.276489 430.046997,672.851562 428.045227,672.474854  z"/>
<path fill="#000000" opacity="1.000000" stroke="none" d=" M592.371643,670.820068   C589.046753,667.226013 586.709290,663.674866 588.880737,658.921570   C590.737305,654.857544 594.143066,653.018372 598.411926,652.808289   C603.217041,652.571960 606.611511,654.945251 608.935242,659.053833   C611.082214,662.849854 610.554688,666.394348 607.992859,669.734192   C605.042603,673.580444 600.954041,673.796509 596.700745,672.936462   C595.287537,672.650696 594.006470,671.710999 592.371643,670.820068  z"/>
</svg>